<svg xmlns="http://www.w3.org/2000/svg" xmlns:xlink="http://www.w3.org/1999/xlink" viewBox="0 0 2000 1194"><defs><style>.cls-1,.cls-11,.cls-47,.cls-48,.cls-6{fill:none;}.cls-2{isolation:isolate;}.cls-3{opacity:0.5;}.cls-4{fill:#ccefdb;}.cls-5{fill:url(#linear-gradient);}.cls-6{stroke:#99dfb8;}.cls-11,.cls-47,.cls-48,.cls-6{stroke-miterlimit:10;}.cls-11,.cls-6{stroke-width:0.59px;}.cls-7{fill:url(#linear-gradient-2);}.cls-8{fill:url(#linear-gradient-3);}.cls-9{fill:url(#linear-gradient-4);}.cls-10{fill:#e9f4eb;}.cls-11{stroke:#8fcd96;}.cls-12{fill:#99dfb8;}.cls-13{fill:url(#linear-gradient-5);}.cls-14{fill:url(#linear-gradient-6);}.cls-15{fill:#fff;}.cls-16{fill:url(#linear-gradient-7);}.cls-17{fill:url(#linear-gradient-8);}.cls-18{fill:url(#linear-gradient-9);}.cls-19{fill:url(#linear-gradient-10);}.cls-20{fill:url(#linear-gradient-11);}.cls-21{fill:url(#linear-gradient-12);}.cls-22{fill:url(#linear-gradient-13);}.cls-23{fill:url(#linear-gradient-14);}.cls-24{fill:url(#linear-gradient-15);}.cls-25{fill:url(#linear-gradient-16);}.cls-26{fill:#42342d;}.cls-27{fill:#ee6352;}.cls-28{fill:#00b14f;}.cls-29{fill:#70c493;}.cls-30{clip-path:url(#clip-path);}.cls-31{fill:#e5a677;}.cls-32{fill:url(#linear-gradient-17);}.cls-33{fill:#0084a5;}.cls-34{fill:url(#linear-gradient-18);}.cls-35{fill:url(#linear-gradient-19);}.cls-36{fill:url(#linear-gradient-20);}.cls-37{fill:#403732;}.cls-38{clip-path:url(#clip-path-2);}.cls-39{fill:url(#linear-gradient-21);}.cls-40{fill:#99dbeb;}.cls-41{clip-path:url(#clip-path-3);}.cls-42{fill:url(#linear-gradient-22);}.cls-43{fill:url(#linear-gradient-23);}.cls-44{fill:url(#linear-gradient-24);}.cls-45{fill:#41342e;}.cls-46{fill:#c1beb2;}.cls-47{stroke:#42342d;}.cls-47,.cls-48{stroke-linecap:round;}.cls-48{stroke:#fff;}.cls-49{fill:url(#linear-gradient-25);}.cls-50{opacity:0.6;mix-blend-mode:multiply;fill:url(#linear-gradient-26);}.cls-51{fill:url(#linear-gradient-27);}.cls-52{fill:url(#linear-gradient-28);}.cls-53{fill:url(#linear-gradient-29);}.cls-54{fill:url(#linear-gradient-30);}.cls-55{fill:url(#linear-gradient-31);}.cls-56{fill:url(#linear-gradient-32);}</style><linearGradient id="linear-gradient" x1="1709.45" y1="763.96" x2="1750.76" y2="722.65" gradientUnits="userSpaceOnUse"><stop offset="0" stop-color="#8fcd96" stop-opacity="0.2"/><stop offset="1" stop-color="#99dfb8" stop-opacity="0"/></linearGradient><linearGradient id="linear-gradient-2" x1="1645.17" y1="763.96" x2="1686.48" y2="722.65" xlink:href="#linear-gradient"/><linearGradient id="linear-gradient-3" x1="296.55" y1="763.96" x2="337.86" y2="722.65" xlink:href="#linear-gradient"/><linearGradient id="linear-gradient-4" x1="232.28" y1="763.96" x2="273.58" y2="722.65" xlink:href="#linear-gradient"/><linearGradient id="linear-gradient-5" x1="426.34" y1="838.38" x2="646.67" y2="618.05" gradientUnits="userSpaceOnUse"><stop offset="0" stop-color="#99dfb8" stop-opacity="0"/><stop offset="0.12" stop-color="#96daaf" stop-opacity="0.05"/><stop offset="0.38" stop-color="#92d3a1" stop-opacity="0.13"/><stop offset="0.66" stop-color="#90ce99" stop-opacity="0.18"/><stop offset="1" stop-color="#8fcd96" stop-opacity="0.2"/></linearGradient><linearGradient id="linear-gradient-6" x1="-4267.77" y1="619.48" x2="-4092.31" y2="619.48" gradientTransform="matrix(1, 0, 0, -1, 5403.97, 1238.95)" xlink:href="#linear-gradient-5"/><linearGradient id="linear-gradient-7" x1="877.79" y1="721.46" x2="942.55" y2="656.7" xlink:href="#linear-gradient"/><linearGradient id="linear-gradient-8" x1="961.73" y1="721.46" x2="1026.49" y2="656.7" xlink:href="#linear-gradient"/><linearGradient id="linear-gradient-9" x1="1045.66" y1="721.46" x2="1110.42" y2="656.7" xlink:href="#linear-gradient"/><linearGradient id="linear-gradient-10" x1="611.97" y1="604.99" x2="661.78" y2="555.19" xlink:href="#linear-gradient"/><linearGradient id="linear-gradient-11" x1="534.47" y1="604.99" x2="584.27" y2="555.19" xlink:href="#linear-gradient"/><linearGradient id="linear-gradient-12" x1="-4258.73" y1="743.38" x2="-4132.03" y2="743.38" gradientTransform="matrix(1, 0, 0, -1, 5636.38, 1486.76)" xlink:href="#linear-gradient-5"/><linearGradient id="linear-gradient-13" x1="1441" y1="671.51" x2="1495.34" y2="671.51" gradientUnits="userSpaceOnUse"><stop offset="0" stop-color="#99dfb8" stop-opacity="0"/><stop offset="0.07" stop-color="#97dcb2" stop-opacity="0.08"/><stop offset="0.23" stop-color="#94d7a8" stop-opacity="0.23"/><stop offset="0.4" stop-color="#92d2a0" stop-opacity="0.35"/><stop offset="0.57" stop-color="#90cf9a" stop-opacity="0.43"/><stop offset="0.76" stop-color="#8fce97" stop-opacity="0.48"/><stop offset="0.99" stop-color="#8fcd96" stop-opacity="0.5"/></linearGradient><linearGradient id="linear-gradient-14" x1="792.7" y1="171.47" x2="1021.74" y2="171.47" gradientUnits="userSpaceOnUse"><stop offset="0" stop-color="#99dfb8" stop-opacity="0"/><stop offset="0.12" stop-color="#8cdbaf" stop-opacity="0.05"/><stop offset="0.38" stop-color="#77d5a0" stop-opacity="0.14"/><stop offset="0.66" stop-color="#6ad198" stop-opacity="0.18"/><stop offset="1" stop-color="#66d095" stop-opacity="0.2"/></linearGradient><linearGradient id="linear-gradient-15" x1="1516.18" y1="273.42" x2="1857.42" y2="273.42" xlink:href="#linear-gradient-14"/><linearGradient id="linear-gradient-16" x1="351.81" y1="318.7" x2="580.85" y2="318.7" xlink:href="#linear-gradient-14"/><clipPath id="clip-path"><path class="cls-1" d="M1133.13,741.1l41.5-22.87,82.29,74-38.68,34.19a55.31,55.31,0,0,0-13.93,19l-84.86,191.25a11.06,11.06,0,0,1-10.11,6.58h-15.63l51.18-228.9-19.34-53A16.61,16.61,0,0,1,1133.13,741.1Z"/></clipPath><linearGradient id="linear-gradient-17" x1="1603.75" y1="-500.24" x2="1570.88" y2="-533.12" gradientTransform="matrix(0.87, 0.48, -0.48, 0.87, -609.61, 219.75)" gradientUnits="userSpaceOnUse"><stop offset="0" stop-color="#e5a677"/><stop offset="1" stop-color="#ba7855"/></linearGradient><linearGradient id="linear-gradient-18" x1="1013.52" y1="761.38" x2="407.6" y2="761.38" gradientUnits="userSpaceOnUse"><stop offset="0" stop-color="#0084a5"/><stop offset="0.01" stop-color="#0082a2"/><stop offset="0.13" stop-color="#007491"/><stop offset="0.26" stop-color="#006b86"/><stop offset="0.46" stop-color="#00657f"/><stop offset="1" stop-color="#00647d"/></linearGradient><linearGradient id="linear-gradient-19" x1="942.98" y1="728.12" x2="942.98" y2="686.23" gradientUnits="userSpaceOnUse"><stop offset="0" stop-color="#00b14f"/><stop offset="1" stop-color="#4b8b42"/></linearGradient><linearGradient id="linear-gradient-20" x1="1094.4" y1="764.13" x2="944.6" y2="614.33" gradientUnits="userSpaceOnUse"><stop offset="0" stop-color="#7b716d"/><stop offset="1" stop-color="#42342d"/></linearGradient><clipPath id="clip-path-2"><path class="cls-1" d="M1111.1,473.66c-4.17-24.6-23.6-45.44-50.28-50.76-34.26-6.85-67.38,14.45-74,47.56A59.61,59.61,0,0,0,993.16,511c7.2,13.09,20.3,21.91,34.95,24.83l18.18,3.64a8.44,8.44,0,0,0,8.66-3.59h0a23.55,23.55,0,0,0,1.77-23c-3.4-7.34-7.46-17.07-9.68-25.92a8.38,8.38,0,0,1,9-10.33,379.43,379.43,0,0,1,44.71,7.1A8.72,8.72,0,0,0,1111.1,473.66Z"/></clipPath><linearGradient id="linear-gradient-21" x1="1077.39" y1="514.72" x2="1020.44" y2="514.72" xlink:href="#linear-gradient-19"/><clipPath id="clip-path-3"><path class="cls-1" d="M1045.32,464.93l65.61,6.6a5.92,5.92,0,0,1,5.36,5.81c.17,13.57-1.52,50.08-23,72.36l-19.64-18.59s-8.7-29.72-31.57-33.91c0,0-.36,0-1-.14a16.22,16.22,0,0,1-13.48-18.19h0A16.2,16.2,0,0,1,1045.32,464.93Z"/></clipPath><linearGradient id="linear-gradient-22" x1="1021.9" y1="492.28" x2="1093.4" y2="492.28" gradientUnits="userSpaceOnUse"><stop offset="0" stop-color="#0084a5"/><stop offset="1" stop-color="#66c9e2"/></linearGradient><linearGradient id="linear-gradient-23" x1="1046.29" y1="508.82" x2="1097.51" y2="508.82" xlink:href="#linear-gradient-22"/><linearGradient id="linear-gradient-24" x1="985.67" y1="480.63" x2="1111.23" y2="480.63" xlink:href="#linear-gradient-22"/><linearGradient id="linear-gradient-25" x1="774.07" y1="619.6" x2="723.68" y2="776.49" gradientUnits="userSpaceOnUse"><stop offset="0" stop-color="#66d095"/><stop offset="0.17" stop-color="#60cc90"/><stop offset="0.39" stop-color="#4ec081"/><stop offset="0.66" stop-color="#31ad68"/><stop offset="0.94" stop-color="#099346"/><stop offset="1" stop-color="#008d3f"/></linearGradient><linearGradient id="linear-gradient-26" x1="837.65" y1="618.05" x2="643.61" y2="815.44" gradientUnits="userSpaceOnUse"><stop offset="0" stop-color="#ccefdb"/><stop offset="0.11" stop-color="#c5e5d2"/><stop offset="0.29" stop-color="#b1cbba"/><stop offset="0.52" stop-color="#92a192"/><stop offset="0.79" stop-color="#66665d"/><stop offset="1" stop-color="#41342e"/></linearGradient><linearGradient id="linear-gradient-27" x1="745.42" y1="726.1" x2="758.44" y2="726.1" gradientUnits="userSpaceOnUse"><stop offset="0" stop-color="#f1f8f4"/><stop offset="1" stop-color="#fff"/></linearGradient><linearGradient id="linear-gradient-28" x1="760.01" y1="728.17" x2="777.03" y2="728.17" xlink:href="#linear-gradient-27"/><linearGradient id="linear-gradient-29" x1="778.74" y1="728.17" x2="795.75" y2="728.17" xlink:href="#linear-gradient-27"/><linearGradient id="linear-gradient-30" x1="674.87" y1="724.74" x2="742.17" y2="724.74" xlink:href="#linear-gradient-27"/><linearGradient id="linear-gradient-31" x1="797.75" y1="724.91" x2="814.66" y2="724.91" xlink:href="#linear-gradient-27"/><linearGradient id="linear-gradient-32" x1="651.94" y1="683.92" x2="835.98" y2="683.92" gradientUnits="userSpaceOnUse"><stop offset="0" stop-color="#096b37"/><stop offset="1" stop-color="#008d3f"/></linearGradient></defs><title>error-no-address</title><g class="cls-2"><g id="Layer_2" data-name="Layer 2"><g id="Layer_1-2" data-name="Layer 1"><g class="cls-3"><circle class="cls-4" cx="1730.1" cy="727.11" r="17.76"/><circle class="cls-4" cx="1730.1" cy="751.97" r="23.08"/><path class="cls-5" d="M1745.91,735.18a17.76,17.76,0,1,0-31.61,0,23.09,23.09,0,1,0,31.61,0Z"/><line class="cls-6" x1="1730.1" y1="731.97" x2="1730.1" y2="798.56"/><line class="cls-6" x1="1730.1" y1="763.92" x2="1739.41" y2="754.61"/><line class="cls-6" x1="1730.1" y1="744.28" x2="1720.79" y2="734.97"/><circle class="cls-4" cx="1665.82" cy="727.11" r="17.76"/><circle class="cls-4" cx="1665.82" cy="751.97" r="23.08"/><path class="cls-7" d="M1681.63,735.18a17.76,17.76,0,1,0-31.61,0,23.09,23.09,0,1,0,31.61,0Z"/><line class="cls-6" x1="1665.82" y1="731.97" x2="1665.82" y2="798.56"/><line class="cls-6" x1="1665.82" y1="763.92" x2="1675.13" y2="754.61"/><line class="cls-6" x1="1665.82" y1="744.28" x2="1656.51" y2="734.97"/><circle class="cls-4" cx="317.21" cy="727.11" r="17.76"/><circle class="cls-4" cx="317.21" cy="751.97" r="23.08"/><path class="cls-8" d="M333,735.18a17.76,17.76,0,1,0-31.61,0,23.09,23.09,0,1,0,31.61,0Z"/><line class="cls-6" x1="317.21" y1="731.97" x2="317.21" y2="798.56"/><line class="cls-6" x1="317.21" y1="763.92" x2="326.52" y2="754.61"/><line class="cls-6" x1="317.21" y1="744.28" x2="307.9" y2="734.97"/><circle class="cls-4" cx="252.93" cy="727.11" r="17.76"/><circle class="cls-4" cx="252.93" cy="751.97" r="23.08"/><path class="cls-9" d="M268.73,735.18a17.76,17.76,0,1,0-31.61,0,23.09,23.09,0,1,0,31.61,0Z"/><line class="cls-6" x1="252.93" y1="731.97" x2="252.93" y2="798.56"/><line class="cls-6" x1="252.93" y1="763.92" x2="262.24" y2="754.61"/><line class="cls-6" x1="252.93" y1="744.28" x2="243.62" y2="734.97"/><rect class="cls-10" x="622.87" y="483.45" width="160.29" height="174.39"/><line class="cls-11" x1="622.87" y1="506.64" x2="783.16" y2="506.64"/><line class="cls-11" x1="622.87" y1="556.86" x2="783.16" y2="556.86"/><line class="cls-11" x1="622.87" y1="581.97" x2="783.16" y2="581.97"/><line class="cls-11" x1="622.87" y1="531.75" x2="783.16" y2="531.75"/><rect class="cls-12" x="686.45" y="657.83" width="96.71" height="140.76"/><rect class="cls-4" x="386.56" y="657.83" width="299.9" height="140.76"/><rect class="cls-13" x="386.56" y="657.83" width="299.9" height="140.76"/><polygon class="cls-12" points="386.56 692.56 386.56 698.12 386.56 703.69 686.45 703.69 686.45 698.12 686.45 692.56 386.56 692.56"/><polygon class="cls-4" points="404.06 658.29 401.75 658.29 399.45 658.29 399.45 681.85 401.75 681.85 404.06 681.85 404.06 658.29"/><polygon class="cls-4" points="446.77 658.29 444.46 658.29 442.16 658.29 442.16 681.85 444.46 681.85 446.77 681.85 446.77 658.29"/><polygon class="cls-4" points="489.48 658.29 487.17 658.29 484.87 658.29 484.87 681.85 487.17 681.85 489.48 681.85 489.48 658.29"/><polygon class="cls-4" points="636.87 629.42 636.87 626.64 636.87 623.86 386.56 623.86 386.56 626.64 386.56 629.42 636.87 629.42"/><polygon class="cls-4" points="1685.45 774.99 1687.76 774.99 1690.06 774.99 1690.06 798.56 1687.76 798.56 1685.45 798.56 1685.45 774.99"/><polygon class="cls-4" points="1642.74 774.99 1645.05 774.99 1647.35 774.99 1647.35 798.56 1645.05 798.56 1642.74 798.56 1642.74 774.99"/><polygon class="cls-4" points="1495.35 774.99 1495.35 772.69 1495.35 770.38 1702.95 770.38 1702.95 772.69 1702.95 774.99 1495.35 774.99"/><polygon class="cls-4" points="783.16 483.45 783.16 480.67 783.16 477.88 617.62 477.88 617.62 480.67 617.62 483.45 783.16 483.45"/><polygon class="cls-4" points="668.44 477.88 668.44 475.1 668.44 472.32 635.88 472.32 635.88 475.1 635.88 477.88 668.44 477.88"/><polygon class="cls-4" points="613.65 629.42 610.87 629.42 608.09 629.42 608.09 657.84 610.87 657.84 613.65 657.84 613.65 629.42"/><polygon class="cls-4" points="532.19 658.29 529.88 658.29 527.58 658.29 527.58 681.85 529.88 681.85 532.19 681.85 532.19 658.29"/><polygon class="cls-12" points="386.56 646.71 386.56 652.27 386.56 657.83 783.16 657.83 783.16 652.27 783.16 646.71 386.56 646.71"/><rect class="cls-12" x="1223.93" y="440.36" width="175.46" height="358.24" transform="translate(2623.33 1238.95) rotate(-180)"/><rect class="cls-4" x="1136.2" y="440.36" width="175.46" height="358.24" transform="translate(2447.87 1238.95) rotate(-180)"/><rect class="cls-14" x="1136.2" y="440.36" width="175.46" height="358.24" transform="translate(2447.87 1238.95) rotate(-180)"/><rect class="cls-15" x="1244.04" y="469.7" width="14.32" height="14.32" transform="translate(2502.39 953.72) rotate(-180)"/><rect class="cls-15" x="1202.45" y="469.7" width="14.32" height="14.32" transform="translate(2419.23 953.72) rotate(-180)"/><rect class="cls-15" x="1160.87" y="469.7" width="14.32" height="14.32" transform="translate(2336.06 953.72) rotate(-180)"/><rect class="cls-15" x="1244.04" y="516.43" width="14.32" height="14.32" transform="translate(2502.39 1047.18) rotate(-180)"/><rect class="cls-15" x="1202.45" y="516.43" width="14.32" height="14.32" transform="translate(2419.23 1047.18) rotate(-180)"/><rect class="cls-15" x="1160.87" y="516.43" width="14.32" height="14.32" transform="translate(2336.06 1047.18) rotate(-180)"/><rect class="cls-15" x="1244.04" y="563.16" width="14.32" height="14.32" transform="translate(2502.39 1140.64) rotate(-180)"/><rect class="cls-15" x="1202.45" y="563.16" width="14.32" height="14.32" transform="translate(2419.23 1140.64) rotate(-180)"/><rect class="cls-15" x="1160.87" y="563.16" width="14.32" height="14.32" transform="translate(2336.06 1140.64) rotate(-180)"/><circle class="cls-4" cx="910.17" cy="649.43" r="17.76"/><circle class="cls-4" cx="910.17" cy="674.29" r="23.08"/><circle class="cls-4" cx="910.17" cy="711.4" r="30.01"/><path class="cls-16" d="M928.79,687.89a23,23,0,0,0-2.81-30.4,17.76,17.76,0,1,0-31.61,0,23,23,0,0,0-2.82,30.4,30,30,0,1,0,37.24,0Z"/><line class="cls-6" x1="910.17" y1="658.29" x2="910.17" y2="798.59"/><line class="cls-6" x1="910.17" y1="690.24" x2="919.48" y2="680.93"/><line class="cls-6" x1="910.17" y1="670.6" x2="900.86" y2="661.29"/><line class="cls-6" x1="910.17" y1="729.51" x2="919.48" y2="720.2"/><line class="cls-6" x1="910.17" y1="709.87" x2="900.86" y2="700.56"/><circle class="cls-4" cx="994.11" cy="649.43" r="17.76"/><circle class="cls-4" cx="994.11" cy="674.29" r="23.08"/><circle class="cls-4" cx="994.11" cy="711.4" r="30.01"/><path class="cls-17" d="M1012.73,687.89a23,23,0,0,0-2.82-30.4,17.76,17.76,0,1,0-31.61,0,23,23,0,0,0-2.81,30.4,30,30,0,1,0,37.24,0Z"/><line class="cls-6" x1="994.11" y1="658.29" x2="994.11" y2="798.59"/><line class="cls-6" x1="994.11" y1="690.24" x2="1003.42" y2="680.93"/><line class="cls-6" x1="994.11" y1="670.6" x2="984.8" y2="661.29"/><line class="cls-6" x1="994.11" y1="729.51" x2="1003.42" y2="720.2"/><line class="cls-6" x1="994.11" y1="709.87" x2="984.8" y2="700.56"/><circle class="cls-4" cx="1078.04" cy="649.43" r="17.76"/><circle class="cls-4" cx="1078.04" cy="674.29" r="23.08"/><circle class="cls-4" cx="1078.04" cy="711.4" r="30.01"/><path class="cls-18" d="M1096.66,687.89a23,23,0,0,0-2.81-30.4,17.76,17.76,0,1,0-31.61,0,23,23,0,0,0-2.82,30.4,30,30,0,1,0,37.24,0Z"/><line class="cls-6" x1="1078.04" y1="658.29" x2="1078.04" y2="798.59"/><line class="cls-6" x1="1078.04" y1="690.24" x2="1087.35" y2="680.93"/><line class="cls-6" x1="1078.04" y1="670.6" x2="1068.73" y2="661.29"/><line class="cls-6" x1="1078.04" y1="729.51" x2="1087.35" y2="720.2"/><line class="cls-6" x1="1078.04" y1="709.87" x2="1068.73" y2="700.56"/><circle class="cls-4" cx="636.87" cy="560.56" r="21.41"/><circle class="cls-4" cx="636.87" cy="590.54" r="27.83"/><path class="cls-19" d="M655.93,570.29a21.42,21.42,0,1,0-38.11,0,27.84,27.84,0,1,0,38.11,0Z"/><line class="cls-6" x1="636.87" y1="566.42" x2="636.87" y2="646.71"/><line class="cls-6" x1="636.87" y1="604.95" x2="648.1" y2="593.72"/><line class="cls-6" x1="636.87" y1="581.27" x2="625.65" y2="570.05"/><circle class="cls-4" cx="559.37" cy="560.56" r="21.41"/><circle class="cls-4" cx="559.37" cy="590.54" r="27.83"/><path class="cls-20" d="M578.43,570.29a21.41,21.41,0,1,0-38.12,0,27.83,27.83,0,1,0,38.12,0Z"/><line class="cls-6" x1="559.37" y1="566.42" x2="559.37" y2="646.71"/><line class="cls-6" x1="559.37" y1="604.95" x2="570.6" y2="593.72"/><line class="cls-6" x1="559.37" y1="581.27" x2="548.14" y2="570.05"/><rect class="cls-15" x="1377.65" y="688.2" width="126.7" height="110.36" transform="translate(2882.01 1486.76) rotate(-180)"/><rect class="cls-4" x="1377.65" y="688.2" width="126.7" height="110.36" transform="translate(2882.01 1486.76) rotate(-180)"/><polygon class="cls-15" points="1433.86 618.93 1560.57 618.93 1560.57 688.2 1488.01 688.2 1433.86 688.2 1377.65 688.2 1433.86 618.93"/><polygon class="cls-12" points="1433.86 618.93 1560.57 618.93 1560.57 688.2 1488.01 688.2 1433.86 688.2 1377.65 688.2 1433.86 618.93"/><polygon class="cls-15" points="1560.56 618.93 1614.71 688.2 1614.71 798.56 1504.35 798.56 1504.35 688.2 1560.56 618.93"/><polygon class="cls-4" points="1560.56 618.93 1614.71 688.2 1614.71 798.56 1504.35 798.56 1504.35 688.2 1560.56 618.93"/><rect class="cls-21" x="1377.65" y="688.2" width="126.7" height="110.36" transform="translate(2882.01 1486.76) rotate(-180)"/><rect class="cls-15" x="1454.37" y="720.08" width="14.04" height="14.04" transform="translate(2922.78 1454.2) rotate(-180)"/><rect class="cls-15" x="1413.6" y="720.08" width="14.04" height="14.04" transform="translate(2841.24 1454.2) rotate(-180)"/><rect class="cls-15" x="1542.39" y="755.06" width="34.28" height="43.53" transform="translate(3119.07 1553.66) rotate(-180)"/><path class="cls-12" d="M337.17,798.59a31.39,31.39,0,0,1,60.63-11.43,17.09,17.09,0,0,1,24.67,11.43Z"/><path class="cls-12" d="M1341.69,798.59a31.39,31.39,0,0,1,60.63-11.43A17.09,17.09,0,0,1,1427,798.59Z"/><polygon class="cls-4" points="1441 654.82 1413.83 688.2 1468.17 688.2 1441 654.82"/><polygon class="cls-12" points="1468.17 688.2 1495.35 654.82 1441 654.82 1468.17 688.2"/><polygon class="cls-22" points="1468.17 688.2 1495.35 654.82 1441 654.82 1468.17 688.2"/><circle class="cls-15" cx="1441" cy="675.22" r="3.71"/><path class="cls-4" d="M1127.67,798.59a26.57,26.57,0,0,0-47.79-16,17.38,17.38,0,0,0-7.21-1.56,17.58,17.58,0,0,0-17.58,17.57Z"/><rect class="cls-4" x="1772.72" y="781.84" width="85.32" height="15.91"/><rect class="cls-4" x="124.19" y="781.84" width="85.32" height="15.91"/></g><path class="cls-23" d="M792.7,198.66h229S1023,169.45,995,169.45c0,0-8.39-25.17-35.12-25.17s-36.67,29.21-36.67,29.21a12.43,12.43,0,0,0-10.87-5.59c-7.77,0-12.12,7.45-12.12,7.45s-5.91-13-17.41-13-17.71,8.39-21.13,12.12-9.94,13.68-21.44,13.68S825.33,176.91,812,176.91,792.7,198.66,792.7,198.66Z"/><path class="cls-24" d="M1516.18,313.93H1857.4s1.86-43.52-39.81-43.52c0,0-12.5-37.5-52.32-37.5s-54.63,43.52-54.63,43.52-4.63-8.33-16.21-8.33-18,11.11-18,11.11-8.8-19.45-25.93-19.45-26.39,12.5-31.49,18.06-14.81,20.37-31.94,20.37-22.22-16.67-42.13-16.67S1516.18,313.93,1516.18,313.93Z"/><path class="cls-25" d="M351.81,345.89h229s1.24-29.21-26.73-29.21c0,0-8.39-25.17-35.11-25.17s-36.67,29.21-36.67,29.21a12.46,12.46,0,0,0-10.88-5.59c-7.77,0-12.12,7.46-12.12,7.46s-5.9-13.06-17.4-13.06-17.71,8.39-21.13,12.12-9.95,13.68-21.44,13.68-14.92-11.19-28.28-11.19S351.81,345.89,351.81,345.89Z"/><path class="cls-26" d="M1120.93,684.06h-14a22.44,22.44,0,0,0,0,44.87h14a22.44,22.44,0,1,0,0-44.87Z"/><path class="cls-26" d="M1114,694.73h-41.61a11.77,11.77,0,0,0,0,23.53H1114a11.77,11.77,0,0,0,0-23.53Z"/><path class="cls-26" d="M1111.93,678.35v7.12a22.44,22.44,0,0,1,.11,41.36L1168.17,760l7.65-54.87Z"/><path class="cls-27" d="M621.42,784.18,649,838.31a11.06,11.06,0,0,0,9.86,6H703l-24-47.45Z"/><path class="cls-26" d="M660.69,819.49l7.89,24.86h50.9l-24-47.45L662,816.26A2.76,2.76,0,0,0,660.69,819.49Z"/><path class="cls-26" d="M668.41,806.06v38.72L588.19,957.27h0a54,54,0,0,0,35.56-13.34l48.43-42.31A110.63,110.63,0,0,1,745,874.29H805.8Z"/><path class="cls-26" d="M1171.12,730.33l-56,31.73v65.81a27.69,27.69,0,0,1-8.56,20l-60.75,58a27.69,27.69,0,0,1-28.33,6.07L975.29,897a16.59,16.59,0,0,1-9.46-22.76l7.66-16.14a16.57,16.57,0,0,1,11.28-9.06l6.18-1.42a16.6,16.6,0,0,0,12.88-16.18v-20.2a16.59,16.59,0,0,0-12.93-16.19L863.47,766.18a55.32,55.32,0,0,0-12.23-1.37H655a16.59,16.59,0,0,0-15.13,9.77l-6.66,14.77,189.37,36.28L694.78,866.51l233.53,156.12a55.34,55.34,0,0,0,30.74,9.33h157.49l105.8-227.29Z"/><path class="cls-28" d="M618.14,781.83,889,957.94a5.54,5.54,0,0,0,8.3-6.29L871.7,869.54Z"/><path class="cls-29" d="M618.14,781.83,871.7,869.54l27.48-27.49a5.53,5.53,0,0,0-2.92-9.35Z"/><path class="cls-26" d="M1156.18,878c-21.34-18.09-1.29-60.78,68.73-61.46,67-.65,113.24,24.19,137.86,42.2,4.93,3.61,1.21,11.34-4.71,9.8-49.06-12.79-157.41-25.15-224.93,86.91Z"/><path class="cls-28" d="M1133.13,741.1l41.5-22.87,82.29,74-38.68,34.19a55.31,55.31,0,0,0-13.93,19l-84.86,191.25a11.06,11.06,0,0,1-10.11,6.58h-15.63l51.18-228.9-19.34-53A16.61,16.61,0,0,1,1133.13,741.1Z"/><path class="cls-29" d="M1218.24,826.42l38.68-34.19-82.29-74-41.5,22.87a16.61,16.61,0,0,0-7.58,20.22l19.23,52.75,64.65,22.36A55.14,55.14,0,0,1,1218.24,826.42Z"/><g class="cls-30"><polygon class="cls-15" points="1264.48 793.55 1161.3 780.21 1234.44 826.41 1264.48 793.55"/></g><path class="cls-29" d="M1104.45,684.2a24.36,24.36,0,0,1,24.36,24.36c0,.11,0,.2,0,.31l85.9,23-43.8-50.75a38.72,38.72,0,0,0-29.09-13.43l-35.23-.21a16.71,16.71,0,0,0-16.81,16.71h14.7Z"/><path class="cls-26" d="M763.27,903.59a95,95,0,1,1-95,95,95.07,95.07,0,0,1,95-95m0-34.05a129,129,0,1,0,129,129,129,129,0,0,0-129-129Z"/><circle class="cls-26" cx="763.27" cy="998.55" r="32.87"/><circle class="cls-15" cx="763.27" cy="998.55" r="8.77"/><circle class="cls-26" cx="1288.62" cy="998.55" r="32.87"/><path class="cls-26" d="M1289.43,903.59a95,95,0,1,1-95,95,95.07,95.07,0,0,1,95-95m0-34.05a129,129,0,1,0,129,129,129,129,0,0,0-129-129Z"/><circle class="cls-15" cx="1288.62" cy="998.55" r="8.77"/><path class="cls-31" d="M1042.49,692.69s24.08-6.14,39.12-7.82a5.78,5.78,0,0,1,5.09,2.15c3.73,4.53,11.3,15,13.83,28a5.83,5.83,0,0,1-5.3,6.89c-10.29.8-32,1.69-52.35-2.68C1015,713.2,1042.49,692.69,1042.49,692.69Z"/><path class="cls-32" d="M1038.4,500.75,1007.92,534c9.37,12.74,15.94,22.63,19.67,28.39l6-6.07c2.54-2.61,12.61-9.94,17.86-12.52Z"/><path class="cls-33" d="M873.28,715.27s-20.49,37.31.73,73.16,144.14,56.34,144.14,56.34l-66.9,121.4,23,32.26,119.47-149a35.1,35.1,0,0,0-13.12-54.06C1026.33,771.27,931.32,730.78,873.28,715.27Z"/><path class="cls-34" d="M1020.31,769.29c-49.63-20.84-107.09-43.35-147-54,0,0-20.49,37.31.73,73.16,4.11,7,12.06,13.31,22.17,19.06C901.33,792.61,925,748.76,1020.31,769.29Z"/><path class="cls-26" d="M989.65,756.6s-11.35-26.16-7.35-56c4.56-34,25.38-73.68,41-101,0,0,24.9-44.92-15.35-77.34,0,0-119.28,31.24-150,188.55,0,0-35.12,38,8.05,61.47C866,772.34,919.4,745.62,989.65,756.6Z"/><path class="cls-35" d="M966.39,754.27C918.6,708.75,992,616.54,997.66,596.73c5.86-20.48-8.78-43.17-8.78-43.17C904,599.66,892.3,712.34,892.3,712.34l-.45.65c-14,20.41,3.88,47.48,28.35,43.71A230.22,230.22,0,0,1,966.39,754.27Z"/><path class="cls-36" d="M979.37,542.59s-78.29,54.87-78.29,123.65c0,55.78,139.75,59.27,139.75,59.27l5.12-41s-56.34-17.56-69.51-25.6C976.44,658.93,1031.32,572.59,979.37,542.59Z"/><path class="cls-28" d="M1045,692.36c-57-14-86.42-29.28-86.42-29.28l7-11.06c8.3-13.07,28.45-52.73,22-78.94a29.23,29.23,0,0,0-8.06-14.4C961.15,573.56,914,616.59,914,666.24c0,28.44,82,48.27,127.72,52.49Z"/><path class="cls-31" d="M1090.89,463c-7.31-22.17-29.12-24.76-47.34-21.55-19.91,3.54-18,24.15-13,52.33.86,4.83,2.15,18.93-8.64,26.35,9.06,21,23.18,26.18,39.65,23.28,19.9-3.51,35.92-45.74,30.94-73.92A50.49,50.49,0,0,0,1090.89,463Z"/><path class="cls-37" d="M1023.94,540.41l23.44,4.84a13.58,13.58,0,0,0,15.3-8.09l1.57-3.77-59.83-9.72h0A26.58,26.58,0,0,0,1023.94,540.41Z"/><path class="cls-37" d="M1054.23,488.37a8.39,8.39,0,0,1,9-10.34c7.63.7,19.28,2.14,34.32,5A375.94,375.94,0,0,0,1056,476.6a8.38,8.38,0,0,0-9,10.33c2.22,8.85,6.28,18.58,9.68,25.92a23.57,23.57,0,0,1-1.76,23,8.46,8.46,0,0,1-8.67,3.59l7.2,1.43a8.43,8.43,0,0,0,8.66-3.58,23.57,23.57,0,0,0,1.76-23.05C1060.51,507,1056.45,497.22,1054.23,488.37Z"/><path class="cls-28" d="M1111.1,473.66c-4.17-24.6-23.6-45.44-50.28-50.76-34.26-6.85-67.38,14.45-74,47.56A59.61,59.61,0,0,0,993.16,511c7.2,13.09,20.3,21.91,34.95,24.83l18.18,3.64a8.44,8.44,0,0,0,8.66-3.59h0a23.55,23.55,0,0,0,1.77-23c-3.4-7.34-7.46-17.07-9.68-25.92a8.38,8.38,0,0,1,9-10.33,379.43,379.43,0,0,1,44.71,7.1A8.72,8.72,0,0,0,1111.1,473.66Z"/><g class="cls-38"><path class="cls-39" d="M1045.32,472.38l65.61,6.59a5.93,5.93,0,0,1,5.36,5.82c.17,13.57-1.52,50.07-23,72.35l-19.64-18.59s-8.7-29.72-31.57-33.9c0,0-.36,0-1-.14a16.23,16.23,0,0,1-13.48-18.19h0A16.19,16.19,0,0,1,1045.32,472.38Z"/></g><path class="cls-40" d="M1045.32,464.93l65.61,6.6a5.92,5.92,0,0,1,5.36,5.81c.17,13.57-1.52,50.08-23,72.36l-19.64-18.59s-8.7-29.72-31.57-33.91c0,0-.36,0-1-.14a16.22,16.22,0,0,1-13.48-18.19h0A16.2,16.2,0,0,1,1045.32,464.93Z"/><g class="cls-41"><path class="cls-42" d="M1090.89,463c-7.31-22.17-29.12-24.76-47.34-21.55-19.91,3.54-18,24.15-13,52.33.86,4.83,2.15,18.93-8.64,26.35,9.06,21,23.18,26.18,39.65,23.28,19.9-3.51,35.92-45.74,30.94-73.92A50.49,50.49,0,0,0,1090.89,463Z"/><path class="cls-43" d="M1054.23,488.37a8.39,8.39,0,0,1,9-10.34c7.63.7,19.28,2.14,34.32,5A375.94,375.94,0,0,0,1056,476.6a8.38,8.38,0,0,0-9,10.33c2.22,8.85,6.28,18.58,9.68,25.92a23.57,23.57,0,0,1-1.76,23,8.46,8.46,0,0,1-8.67,3.59l7.2,1.43a8.43,8.43,0,0,0,8.66-3.58,23.57,23.57,0,0,0,1.76-23.05C1060.51,507,1056.45,497.22,1054.23,488.37Z"/><path class="cls-44" d="M1111.1,473.66c-4.17-24.6-23.6-45.44-50.28-50.76-34.26-6.85-67.38,14.45-74,47.56A59.61,59.61,0,0,0,993.16,511c7.2,13.09,20.3,21.91,34.95,24.83l18.18,3.64a8.44,8.44,0,0,0,8.66-3.59h0a23.55,23.55,0,0,0,1.77-23c-3.4-7.34-7.46-17.07-9.68-25.92a8.38,8.38,0,0,1,9-10.33,379.43,379.43,0,0,1,44.71,7.1A8.72,8.72,0,0,0,1111.1,473.66Z"/></g><circle class="cls-37" cx="1040.22" cy="480.34" r="4.75"/><g id="shoe"><path class="cls-45" d="M951.82,963.68,934.3,990.32l25,26.2A36,36,0,0,0,977,1026.68l48.39,11.53a15.85,15.85,0,0,0-1.07-8.73s-37.95-21.75-37.58-45.92Z"/><circle class="cls-46" cx="962.44" cy="984.82" r="9.7"/><path class="cls-46" d="M1008.92,1018.61l-14.21,5-14.23-3.39a36,36,0,0,1-17.69-10.16l-24.56-25.72-3.93,6,25,26.2A36,36,0,0,0,977,1026.68l48.39,11.53a15.85,15.85,0,0,0-1.07-8.73A123.82,123.82,0,0,1,1008.92,1018.61Z"/></g><path class="cls-26" d="M1068.6,694.73H1068a11.77,11.77,0,0,0,0,23.53h.64a11.77,11.77,0,0,0,0-23.53Z"/><circle class="cls-15" cx="1066.55" cy="706.49" r="3.12"/><line class="cls-47" x1="1307.45" y1="856.13" x2="1189.24" y2="856.13"/><line class="cls-48" x1="1307.45" y1="860.07" x2="1189.24" y2="860.07"/><line class="cls-47" x1="1291.69" y1="873.21" x2="1238.16" y2="873.21"/><line class="cls-48" x1="1291.69" y1="877.15" x2="1238.16" y2="877.15"/><line class="cls-47" x1="1431.96" y1="1057.07" x2="1313.74" y2="1057.07"/><line class="cls-48" x1="1431.96" y1="1061.01" x2="1313.74" y2="1061.01"/><line class="cls-47" x1="1416.19" y1="1074.15" x2="1362.67" y2="1074.15"/><line class="cls-48" x1="1416.19" y1="1078.09" x2="1362.67" y2="1078.09"/><line class="cls-48" x1="756.07" y1="1065.85" x2="637.86" y2="1065.85"/><line class="cls-47" x1="740.31" y1="1078.98" x2="686.78" y2="1078.98"/><line class="cls-47" x1="756.07" y1="1061.91" x2="637.86" y2="1061.91"/><line class="cls-48" x1="740.31" y1="1082.92" x2="686.78" y2="1082.92"/><line class="cls-47" x1="1241.08" y1="962.32" x2="1122.87" y2="962.32"/><line class="cls-48" x1="1241.08" y1="966.26" x2="1122.87" y2="966.26"/><line class="cls-47" x1="1225.32" y1="979.4" x2="1171.79" y2="979.4"/><line class="cls-48" x1="1225.32" y1="983.34" x2="1171.79" y2="983.34"/><line class="cls-47" x1="914.29" y1="1043.8" x2="796.08" y2="1043.8"/><line class="cls-48" x1="914.29" y1="1047.74" x2="796.08" y2="1047.74"/><line class="cls-47" x1="898.53" y1="1060.87" x2="845.01" y2="1060.87"/><line class="cls-48" x1="898.53" y1="1064.81" x2="845.01" y2="1064.81"/><line class="cls-48" x1="716.25" y1="959.66" x2="598.04" y2="959.66"/><line class="cls-47" x1="700.49" y1="972.79" x2="646.96" y2="972.79"/><line class="cls-47" x1="716.25" y1="955.72" x2="598.04" y2="955.72"/><line class="cls-48" x1="700.49" y1="976.73" x2="646.96" y2="976.73"/><line class="cls-47" x1="1400.36" y1="935.77" x2="1282.15" y2="935.77"/><line class="cls-48" x1="1400.36" y1="939.71" x2="1282.15" y2="939.71"/><line class="cls-47" x1="1384.6" y1="952.85" x2="1331.08" y2="952.85"/><line class="cls-48" x1="1384.6" y1="956.79" x2="1331.08" y2="956.79"/><line class="cls-47" x1="861.2" y1="1043.8" x2="742.98" y2="1043.8"/><line class="cls-48" x1="861.2" y1="1047.74" x2="742.98" y2="1047.74"/><line class="cls-47" x1="845.44" y1="1060.87" x2="791.91" y2="1060.87"/><line class="cls-48" x1="845.44" y1="1064.81" x2="791.91" y2="1064.81"/><line class="cls-48" x1="663.16" y1="880.02" x2="544.94" y2="880.02"/><line class="cls-47" x1="647.39" y1="893.15" x2="593.87" y2="893.15"/><line class="cls-47" x1="663.16" y1="876.08" x2="544.94" y2="876.08"/><line class="cls-48" x1="647.39" y1="897.09" x2="593.87" y2="897.09"/><rect class="cls-49" x="651.94" y="658.89" width="184.04" height="108.93" rx="8.47"/><rect class="cls-50" x="651.94" y="658.89" width="184.04" height="108.93" rx="8.47"/><path class="cls-15" d="M757.63,728.53h-8.19v8.61h-4V715.07h13v3.74h-9v6h8.19Z"/><path class="cls-15" d="M777,727.39v1.49c0,5.16-3.35,8.65-8.51,8.65S760,734,760,728.88v-1.49c0-5.17,3.35-8.58,8.51-8.58S777,722.22,777,727.39Zm-3.92,0a4.59,4.59,0,1,0-9.18,0v1.49a4.6,4.6,0,1,0,9.18,0Z"/><path class="cls-15" d="M795.75,727.39v1.49c0,5.16-3.34,8.65-8.5,8.65s-8.51-3.49-8.51-8.65v-1.49c0-5.17,3.34-8.58,8.51-8.58S795.75,722.22,795.75,727.39Zm-3.91,0a4.6,4.6,0,1,0-9.19,0v1.49a4.6,4.6,0,1,0,9.19,0Z"/><path class="cls-15" d="M728.43,720v-8.17h1.67v7A9.7,9.7,0,0,0,728.43,720Zm-2.91,2.45a13.32,13.32,0,0,1,1.68-1.77v-8.85h-1.68Zm-19.4,6.49a8.35,8.35,0,0,0,8.28,8.27,6.05,6.05,0,0,0,2.54-.52V735a6.88,6.88,0,0,1-2.54.53,6.69,6.69,0,0,1-6.6-6.6v-1.51a6.69,6.69,0,0,1,6.6-6.6,6.56,6.56,0,0,1,6.59,6.6v9.78h1.68v-10.1a8.35,8.35,0,0,0-2.57-5.63,8.28,8.28,0,0,0-14,6Zm25.07-4a4,4,0,0,1,2.71-1.19,3.65,3.65,0,0,1,3.69,3.69v1.51a3.65,3.65,0,0,1-3.69,3.69,3.46,3.46,0,0,1-2.72-1.55A6,6,0,0,1,730,727.9l-1.36,1.65a6.37,6.37,0,0,0,1.87,3.34,5.07,5.07,0,0,0,3.39,1.37,5.38,5.38,0,0,0,5.37-5.37v-1.51A5.45,5.45,0,0,0,733.9,722a6,6,0,0,0-4,1.82h0c-.45.45-1.5,1.5-2.14,2.25-1.08,1.18-2.65,3-4,4.74v2.61c1.48-1.9,2.33-3,3.72-4.58A53.66,53.66,0,0,1,731.19,724.88Zm-39.56-3.15v-2a10.84,10.84,0,0,0-5.36-1.17,8.79,8.79,0,0,0-6,2.31,7.49,7.49,0,0,0-2.51,5.53V727a7.79,7.79,0,0,0,7.73,7.84c3.47,0,4.9-1.13,5.26-1.49v-5h-5.66v1.67h4.09v2.52h0a9.09,9.09,0,0,1-3.68.65,6,6,0,0,1-4.28-1.79,6.14,6.14,0,0,1-1.77-4.38v-.54c0-3.34,3.12-6.17,6.81-6.17C688.82,720.24,690.33,720.66,691.63,721.73Zm12.2,2a3.66,3.66,0,0,1,1.61.32,10,10,0,0,1,.73-1.47,4.85,4.85,0,0,0-2.34-.52,5.24,5.24,0,0,0-5.36,5.36v9.78h1.68v-9.78A3.53,3.53,0,0,1,703.83,723.69Zm-29,2.72V727a10.73,10.73,0,0,0,3.1,7.63,10.52,10.52,0,0,0,7.54,3.12,11.73,11.73,0,0,0,6.07-1.54,7.22,7.22,0,0,0,2.1-1.78v-9h-8.57V727H692v6.83h0c-.81.81-2.73,2.17-6.49,2.17a8.85,8.85,0,0,1-6.38-2.64,9.08,9.08,0,0,1-2.58-6.44v-.54a8.8,8.8,0,0,1,2.87-6.36,11,11,0,0,1,12.21-1.55v-1.88a13.41,13.41,0,0,0-5.36-.85C680.09,715.77,674.87,720.64,674.87,726.41Zm44.89,10.75v-9.78a5.37,5.37,0,0,0-10.73,0v1.51a5.44,5.44,0,0,0,5.37,5.37,4.25,4.25,0,0,0,2.54-.75v-1.77a4.12,4.12,0,0,1-2.54.84,3.65,3.65,0,0,1-3.69-3.69v-1.51a3.69,3.69,0,1,1,7.37,0v9.78Zm-15.93-16.38a6,6,0,0,1,3,.75,15.78,15.78,0,0,1,1.15-1.26,7.2,7.2,0,0,0-4.17-1.16,8,8,0,0,0-8.27,8.27v9.78h1.68v-9.78A6.31,6.31,0,0,1,703.83,720.78Zm35.9.77a8.24,8.24,0,0,0-5.83-2.44,8,8,0,0,0-4.08,1.18c-1.82,1.21-3.32,2.53-6,6v2.51a39.13,39.13,0,0,1,6.1-6.63,6.54,6.54,0,0,1,10.6,5.19v1.51a6.62,6.62,0,0,1-6.6,6.6,6.46,6.46,0,0,1-6.23-4.77l-1.18,1.43c.86,2.89,4,5,7.41,5a8.33,8.33,0,0,0,8.27-8.27v-1.51A8.2,8.2,0,0,0,739.73,721.55Z"/><path class="cls-15" d="M797.75,728.88c0,5.16,3.31,8.65,8.47,8.65s8.44-3.49,8.44-8.65V712.29h-3.92v16.59c0,2.85-1.85,4.84-4.52,4.84a4.51,4.51,0,0,1-4.56-4.84v-1.53a4.44,4.44,0,0,1,4.56-4.73,4.23,4.23,0,0,1,4.52,4.41v-6.41a5.85,5.85,0,0,0-4.52-1.81c-5.16,0-8.47,3.41-8.47,8.54Z"/><path class="cls-51" d="M757.63,728.53h-8.19v8.61h-4V715.07h13v3.74h-9v6h8.19Z"/><path class="cls-52" d="M777,727.39v1.49c0,5.16-3.35,8.65-8.51,8.65S760,734,760,728.88v-1.49c0-5.17,3.35-8.58,8.51-8.58S777,722.22,777,727.39Zm-3.92,0a4.59,4.59,0,1,0-9.18,0v1.49a4.6,4.6,0,1,0,9.18,0Z"/><path class="cls-53" d="M795.75,727.39v1.49c0,5.16-3.34,8.65-8.5,8.65s-8.51-3.49-8.51-8.65v-1.49c0-5.17,3.34-8.58,8.51-8.58S795.75,722.22,795.75,727.39Zm-3.91,0a4.6,4.6,0,1,0-9.19,0v1.49a4.6,4.6,0,1,0,9.19,0Z"/><path class="cls-54" d="M728.43,720v-8.17h1.67v7A9.7,9.7,0,0,0,728.43,720Zm-2.91,2.45a13.32,13.32,0,0,1,1.68-1.77v-8.85h-1.68Zm-19.4,6.49a8.35,8.35,0,0,0,8.28,8.27,6.05,6.05,0,0,0,2.54-.52V735a6.88,6.88,0,0,1-2.54.53,6.69,6.69,0,0,1-6.6-6.6v-1.51a6.69,6.69,0,0,1,6.6-6.6,6.56,6.56,0,0,1,6.59,6.6v9.78h1.68v-10.1a8.35,8.35,0,0,0-2.57-5.63,8.28,8.28,0,0,0-14,6Zm25.07-4a4,4,0,0,1,2.71-1.19,3.65,3.65,0,0,1,3.69,3.69v1.51a3.65,3.65,0,0,1-3.69,3.69,3.46,3.46,0,0,1-2.72-1.55A6,6,0,0,1,730,727.9l-1.36,1.65a6.37,6.37,0,0,0,1.87,3.34,5.07,5.07,0,0,0,3.39,1.37,5.38,5.38,0,0,0,5.37-5.37v-1.51A5.45,5.45,0,0,0,733.9,722a6,6,0,0,0-4,1.82h0c-.45.45-1.5,1.5-2.14,2.25-1.08,1.18-2.65,3-4,4.74v2.61c1.48-1.9,2.33-3,3.72-4.58A53.66,53.66,0,0,1,731.19,724.88Zm-39.56-3.15v-2a10.84,10.84,0,0,0-5.36-1.17,8.79,8.79,0,0,0-6,2.31,7.49,7.49,0,0,0-2.51,5.53V727a7.79,7.79,0,0,0,7.73,7.84c3.47,0,4.9-1.13,5.26-1.49v-5h-5.66v1.67h4.09v2.52h0a9.09,9.09,0,0,1-3.68.65,6,6,0,0,1-4.28-1.79,6.14,6.14,0,0,1-1.77-4.38v-.54c0-3.34,3.12-6.17,6.81-6.17C688.82,720.24,690.33,720.66,691.63,721.73Zm12.2,2a3.66,3.66,0,0,1,1.61.32,10,10,0,0,1,.73-1.47,4.85,4.85,0,0,0-2.34-.52,5.24,5.24,0,0,0-5.36,5.36v9.78h1.68v-9.78A3.53,3.53,0,0,1,703.83,723.69Zm-29,2.72V727a10.73,10.73,0,0,0,3.1,7.63,10.52,10.52,0,0,0,7.54,3.12,11.73,11.73,0,0,0,6.07-1.54,7.22,7.22,0,0,0,2.1-1.78v-9h-8.57V727H692v6.83h0c-.81.81-2.73,2.17-6.49,2.17a8.85,8.85,0,0,1-6.38-2.64,9.08,9.08,0,0,1-2.58-6.44v-.54a8.8,8.8,0,0,1,2.87-6.36,11,11,0,0,1,12.21-1.55v-1.88a13.41,13.41,0,0,0-5.36-.85C680.09,715.77,674.87,720.64,674.87,726.41Zm44.89,10.75v-9.78a5.37,5.37,0,0,0-10.73,0v1.51a5.44,5.44,0,0,0,5.37,5.37,4.25,4.25,0,0,0,2.54-.75v-1.77a4.12,4.12,0,0,1-2.54.84,3.65,3.65,0,0,1-3.69-3.69v-1.51a3.69,3.69,0,1,1,7.37,0v9.78Zm-15.93-16.38a6,6,0,0,1,3,.75,15.78,15.78,0,0,1,1.15-1.26,7.2,7.2,0,0,0-4.17-1.16,8,8,0,0,0-8.27,8.27v9.78h1.68v-9.78A6.31,6.31,0,0,1,703.83,720.78Zm35.9.77a8.24,8.24,0,0,0-5.83-2.44,8,8,0,0,0-4.08,1.18c-1.82,1.21-3.32,2.53-6,6v2.51a39.13,39.13,0,0,1,6.1-6.63,6.54,6.54,0,0,1,10.6,5.19v1.51a6.62,6.62,0,0,1-6.6,6.6,6.46,6.46,0,0,1-6.23-4.77l-1.18,1.43c.86,2.89,4,5,7.41,5a8.33,8.33,0,0,0,8.27-8.27v-1.51A8.2,8.2,0,0,0,739.73,721.55Z"/><path class="cls-55" d="M797.75,728.88c0,5.16,3.31,8.65,8.47,8.65s8.44-3.49,8.44-8.65V712.29h-3.92v16.59c0,2.85-1.85,4.84-4.52,4.84a4.51,4.51,0,0,1-4.56-4.84v-1.53a4.44,4.44,0,0,1,4.56-4.73,4.23,4.23,0,0,1,4.52,4.41v-6.41a5.85,5.85,0,0,0-4.52-1.81c-5.16,0-8.47,3.41-8.47,8.54Z"/><rect class="cls-56" x="651.94" y="681.16" width="184.04" height="5.53"/><rect class="cls-1" width="2000" height="1194"/></g></g></g></svg>